<svg width="23" height="14" viewBox="0 0 23 14" fill="none" xmlns="http://www.w3.org/2000/svg">
<g clip-path="url(#clip0)">
<path d="M23 6.96796C22.9897 6.70322 22.8899 6.4498 22.717 6.24904L17.1413 0.324792C16.7635 -0.0146318 16.039 -0.155071 15.6166 0.237671C15.4185 0.44265 15.3087 0.717134 15.3107 1.00219C15.3128 1.28724 15.4265 1.56014 15.6275 1.76229L19.5479 5.9225L1.04545 5.9225C0.768183 5.9225 0.502282 6.03265 0.306222 6.22871C0.110161 6.42477 0 6.69069 0 6.96796C0 7.24523 0.110161 7.51115 0.306222 7.70721C0.502282 7.90327 0.768183 8.01341 1.04545 8.01341H19.5479L15.6261 12.1736C15.4388 12.3828 15.3344 12.6532 15.3324 12.9339C15.3304 13.2146 15.431 13.4864 15.6153 13.6982C15.8387 13.8664 16.1144 13.9499 16.3935 13.9339C16.6727 13.918 16.9371 13.8036 17.1399 13.6111L22.7156 7.68688C22.8079 7.59166 22.8805 7.47911 22.9291 7.35573C22.9778 7.23234 23.0015 7.10056 22.999 6.96796H23Z" fill="#003A6D"/>
</g>
<defs>
<clipPath id="clip0">
<rect width="23" height="13.9394" fill="white"/>
</clipPath>
</defs>
</svg>
