<svg xmlns="http://www.w3.org/2000/svg" width="23.138" height="23.138" viewBox="0 0 23.138 23.138">
  <g id="Facebook" transform="translate(0 0)">
    <path id="facebook-facebook" d="M50.861,29H30.277A1.277,1.277,0,0,0,29,30.277V50.861a1.277,1.277,0,0,0,1.277,1.277H41.359v-8.96H38.343V39.686h3.015V37.111c0-2.989,1.825-4.616,4.492-4.616a24.7,24.7,0,0,1,2.694.138v3.123H46.7c-1.45,0-1.731.689-1.731,1.7v2.229h3.458l-.45,3.492H44.965v8.96h5.9a1.277,1.277,0,0,0,1.277-1.277V30.277A1.277,1.277,0,0,0,50.861,29Z" transform="translate(-29 -29)" fill="#fff"/>
  </g>
</svg>
