<svg xmlns="http://www.w3.org/2000/svg" width="23.139" height="23.141" viewBox="0 0 23.139 23.141">
  <path id="Subtraction_31" data-name="Subtraction 31" d="M13984.862,18820.141h-20.584a1.283,1.283,0,0,1-1.28-1.281v-20.584a1.279,1.279,0,0,1,1.28-1.275h20.584a1.276,1.276,0,0,1,1.274,1.275v20.584A1.28,1.28,0,0,1,13984.862,18820.141Zm-7.218-11.865c1.36,0,1.36,1.289,1.36,2.229v4.092h2.612v-4.615c0-2.082-.38-4.006-3.137-4.006a2.761,2.761,0,0,0-2.475,1.355h-.033v-1.146h-2.508v8.412h2.611v-4.162C13976.076,18809.367,13976.263,18808.275,13977.645,18808.275Zm-8.436-2.092h0v8.412h2.617v-8.412Zm1.309-4.186a1.517,1.517,0,1,0,1.516,1.516A1.518,1.518,0,0,0,13970.518,18802Z" transform="translate(-13962.998 -18797)" fill="#fff"/>
</svg>
