<svg xmlns="http://www.w3.org/2000/svg" width="23.693" height="19.255" viewBox="0 0 23.693 19.255">
  <g id="Twitter" transform="translate(45 0)">
    <path id="twitter-twitter" d="M51.854,37.153a9.711,9.711,0,0,1-2.792.765A4.877,4.877,0,0,0,51.2,35.229a9.729,9.729,0,0,1-3.087,1.18,4.866,4.866,0,0,0-8.284,4.434A13.8,13.8,0,0,1,29.81,35.764a4.866,4.866,0,0,0,1.5,6.49,4.838,4.838,0,0,1-2.2-.608c0,.02,0,.041,0,.061a4.864,4.864,0,0,0,3.9,4.766,4.874,4.874,0,0,1-2.2.083,4.866,4.866,0,0,0,4.541,3.375,9.752,9.752,0,0,1-6.037,2.081,9.884,9.884,0,0,1-1.159-.068A13.825,13.825,0,0,0,49.442,40.3q0-.316-.014-.629A9.872,9.872,0,0,0,51.854,37.153Z" transform="translate(-73.16 -34.874)" fill="#fff"/>
  </g>
</svg>
