<svg id="Layer_1" enable-background="new 0 0 512 512" height="512" viewBox="0 0 512 512" width="512" xmlns="http://www.w3.org/2000/svg"><g><path d="m81 392v-272c0-55.229 44.771-100 100-100h-61c-55.229 0-100 44.771-100 100v272c0 55.228 44.771 100 100 100h61c-55.229 0-100-44.772-100-100z" fill="#cee1f2"/><path d="m392 512h-272c-66.168 0-120-53.832-120-120v-272c0-66.168 53.832-120 120-120h272c66.168 0 120 53.832 120 120v272c0 66.168-53.832 120-120 120zm-272-472c-44.112 0-80 35.888-80 80v272c0 44.112 35.888 80 80 80h272c44.112 0 80-35.888 80-80v-272c0-44.112-35.888-80-80-80zm277 50c-13.807 0-25 11.193-25 25 0 13.807 11.193 25 25 25 13.807 0 25-11.193 25-25 0-13.807-11.193-25-25-25z" fill="#0023c4"/><path d="m256 386c-71.683 0-130-58.317-130-130s58.317-130 130-130 130 58.317 130 130-58.317 130-130 130zm0-220c-49.626 0-90 40.374-90 90s40.374 90 90 90 90-40.374 90-90-40.374-90-90-90z" fill="#de5cee"/></g></svg>